# xmcd
#
# Track frame offsets:
#	150
#	19675
#	40350
#	58802
#	74310
#	89170
#	106837
#	126415
#	146200
#	164600
#	182612
#	199487
#	216887
#	237582
#
# Disc length: 3441 seconds
#
# Revision: 1
# Processed by: cddbd v1.5.1PL0 Copyright (c) Steve Scherf et al.
# Submitted via: CDex 1.50Beta5
#
DISCID=e10d6f0e
DTITLE=南 こうせつ - THE BEST
DYEAR=1900
DGENRE=Folk
TTITLE0=ゆらめく景色
TTITLE1=美映子
TTITLE2=葡萄の季節
TTITLE3=帰郷
TTITLE4=ワイルド・ワン
TTITLE5=風をくらって
TTITLE6=ひとときの別れ
TTITLE7=あの日の空よ
TTITLE8=上海エナジー
TTITLE9=満天の星
TTITLE10=Tears
TTITLE11=夢のはじまり
TTITLE12=めぐる春
TTITLE13=Bye Bye TYO
EXTD=
EXTT0=
EXTT1=
EXTT2=
EXTT3=
EXTT4=
EXTT5=
EXTT6=
EXTT7=
EXTT8=
EXTT9=
EXTT10=
EXTT11=
EXTT12=
EXTT13=
PLAYORDER=
